Coordinates
version=1
nRows=27
nColumns=12
inDegrees=yes

Units are S.I. units (second, meters, Newtons, ...)
Angles are in degrees

endheader
time	SC_y	SC_z	SC_x	AC_y	AC_z	AC_x	GH_y	GH_z	GH_yy	EL_x	PS_y
       0.0              -55.95          14.93           16.2          40.56         -5.142          3.387          127.1          61.83          61.87          85.98          79.23
 0.0008878              -55.95          14.93           16.2          40.57         -5.141          3.386          127.0          61.83          61.85          85.98          79.22
  0.001776              -55.94          14.93          16.21          40.57         -5.139          3.385          127.0          61.82          61.83          85.99          79.21
  0.002663              -55.94          14.93          16.21          40.57         -5.137          3.384          127.0          61.82          61.81          85.99           79.2
  0.003551              -55.94          14.93          16.22          40.58         -5.136          3.382          126.9          61.82          61.78          85.99          79.19
  0.004439              -55.93          14.93          16.23          40.58         -5.134          3.381          126.9          61.81          61.76          85.99          79.18
  0.005327              -55.93          14.94          16.23          40.58         -5.131          3.379          126.8          61.81          61.73          85.99          79.17
  0.006214              -55.93          14.94          16.24          40.59         -5.129          3.378          126.8           61.8           61.7          85.99          79.15
  0.007102              -55.92          14.94          16.25          40.59         -5.127          3.376          126.7           61.8          61.67          85.99          79.14
   0.00799              -55.92          14.94          16.26           40.6         -5.124          3.374          126.7          61.79          61.64          85.99          79.13
  0.008878              -55.91          14.94          16.27           40.6         -5.121          3.372          126.6          61.79          61.61          85.99          79.11
  0.009765              -55.91          14.95          16.28          40.61         -5.118           3.37          126.6          61.78          61.57          85.99          79.09
   0.01065               -55.9          14.95          16.29          40.62         -5.115          3.368          126.5          61.78          61.53          85.99          79.07
   0.01154               -55.9          14.95           16.3          40.62         -5.111          3.365          126.4          61.77          61.48           86.0          79.05
   0.01243              -55.89          14.95          16.31          40.63         -5.107          3.363          126.4          61.76          61.44           86.0          79.03
   0.01332              -55.88          14.96          16.33          40.64         -5.103           3.36          126.3          61.75          61.38           86.0          79.01
    0.0142              -55.88          14.96          16.34          40.65         -5.099          3.357          126.2          61.74          61.33           86.0          78.98
   0.01509              -55.87          14.96          16.36          40.66         -5.094          3.353          126.1          61.73          61.27           86.0          78.95
   0.01598              -55.86          14.97          16.38          40.67         -5.088          3.349          126.0          61.72           61.2           86.0          78.92
   0.01687              -55.85          14.97          16.39          40.68         -5.082          3.345          125.8          61.71          61.13          86.01          78.89
   0.01776              -55.84          14.98          16.42          40.69         -5.076          3.341          125.7           61.7          61.05          86.01          78.85
   0.01864              -55.83          14.98          16.44           40.7         -5.069          3.336          125.6          61.69          60.96          86.01          78.81
   0.01953              -55.82          14.99          16.47          40.72         -5.061           3.33          125.4          61.67          60.86          86.01          78.77
   0.02042               -55.8          14.99          16.49          40.74         -5.052          3.324          125.2          61.65          60.75          86.02          78.72
   0.02131              -55.79           15.0          16.53          40.75         -5.043          3.317          125.0          61.63          60.63          86.02          78.66
   0.02219              -55.77          15.01          16.56          40.77         -5.032           3.31          124.8          61.61           60.5          86.02           78.6
   0.02308              -55.75          15.02           16.6           40.8          -5.02          3.301          124.6          61.59          60.35          86.03          78.53
